<svg width="29" height="22" viewBox="0 0 29 22" fill="none" xmlns="http://www.w3.org/2000/svg">
<path d="M23.8466 2.30175C22.0899 1.4828 20.1878 0.88841 18.2065 0.544983C18.1891 0.544427 18.1719 0.547687 18.1559 0.554534C18.1399 0.56138 18.1256 0.571647 18.1141 0.584609C17.8763 1.0205 17.5989 1.58847 17.414 2.02436C15.3125 1.70735 13.1753 1.70735 11.0738 2.02436C10.8889 1.57526 10.6115 1.0205 10.3605 0.584609C10.3473 0.558192 10.3077 0.544983 10.2681 0.544983C8.28675 0.88841 6.3979 1.4828 4.62793 2.30175C4.61472 2.30175 4.60151 2.31495 4.5883 2.32816C0.995522 7.70412 0.00486645 12.9348 0.49359 18.1126C0.49359 18.139 0.506799 18.1654 0.533216 18.1787C2.91079 19.9222 5.1959 20.9789 7.4546 21.679C7.49422 21.6922 7.53385 21.679 7.54706 21.6526C8.07541 20.9261 8.55092 20.16 8.96039 19.3542C8.98681 19.3014 8.96039 19.2486 8.90756 19.2354C8.15466 18.9448 7.44139 18.6013 6.74133 18.2051C6.68849 18.1787 6.68849 18.0994 6.72812 18.0598C6.87341 17.9541 7.01871 17.8352 7.164 17.7296C7.19042 17.7031 7.23005 17.7031 7.25647 17.7163C11.8003 19.7901 16.7007 19.7901 21.1917 17.7163C21.2181 17.7031 21.2577 17.7031 21.2841 17.7296C21.4294 17.8484 21.5747 17.9541 21.72 18.073C21.7729 18.1126 21.7729 18.1919 21.7068 18.2183C21.02 18.6277 20.2935 18.958 19.5406 19.2486C19.4878 19.2618 19.4746 19.3278 19.4878 19.3674C19.9104 20.1732 20.386 20.9393 20.9011 21.6658C20.9407 21.679 20.9803 21.6922 21.02 21.679C23.2919 20.9789 25.577 19.9222 27.9546 18.1787C27.981 18.1654 27.9942 18.139 27.9942 18.1126C28.5754 12.129 27.03 6.93801 23.8995 2.32816C23.8863 2.31495 23.8731 2.30175 23.8466 2.30175ZM9.64725 14.9557C8.28675 14.9557 7.1508 13.7009 7.1508 12.1555C7.1508 10.61 8.26033 9.35521 9.64725 9.35521C11.0474 9.35521 12.1569 10.6233 12.1437 12.1555C12.1437 13.7009 11.0342 14.9557 9.64725 14.9557ZM18.8537 14.9557C17.4932 14.9557 16.3573 13.7009 16.3573 12.1555C16.3573 10.61 17.4668 9.35521 18.8537 9.35521C20.2539 9.35521 21.3634 10.6233 21.3502 12.1555C21.3502 13.7009 20.2539 14.9557 18.8537 14.9557Z" fill="white"/>
</svg>
