<svg width="32" height="26" viewBox="0 0 32 26" fill="none" xmlns="http://www.w3.org/2000/svg">
<g filter="url(#filter0_d_2_268)">
<path d="M28.6998 2.7343C27.6789 3.19836 26.5784 3.50331 25.4381 3.64916C26.6049 2.94644 27.5065 1.83269 27.9308 0.493545C26.8303 1.15649 25.6105 1.62055 24.3244 1.88573C23.2769 0.745464 21.8052 0.0825195 20.1346 0.0825195C17.0187 0.0825195 14.473 2.62823 14.473 5.77058C14.473 6.22139 14.5261 6.65893 14.6189 7.06996C9.89871 6.8313 5.69564 4.56402 2.89802 1.12997C2.40744 1.96528 2.129 2.94644 2.129 3.98063C2.129 5.95621 3.12342 7.70638 4.66145 8.7008C3.72007 8.7008 2.84498 8.43562 2.07597 8.03785V8.07763C2.07597 10.8355 4.03828 13.1425 6.63702 13.6596C5.80268 13.888 4.92675 13.9197 4.07806 13.7524C4.43818 14.8827 5.14346 15.8717 6.09476 16.5805C7.04606 17.2892 8.19554 17.682 9.38161 17.7036C7.37108 19.2952 4.87889 20.1556 2.31463 20.1432C1.86382 20.1432 1.41302 20.1167 0.962219 20.0637C3.48141 21.6812 6.47792 22.6226 9.68657 22.6226C20.1346 22.6226 25.8757 13.9513 25.8757 6.43353C25.8757 6.18161 25.8757 5.94295 25.8624 5.69103C26.9762 4.8955 27.9308 3.88782 28.6998 2.7343Z" fill="white"/>
</g>
<defs>
<filter id="filter0_d_2_268" x="0.962219" y="0.0825195" width="30.6308" height="25.4334" filterUnits="userSpaceOnUse" color-interpolation-filters="sRGB">
<feFlood flood-opacity="0" result="BackgroundImageFix"/>
<feColorMatrix in="SourceAlpha" type="matrix" values="0 0 0 0 0 0 0 0 0 0 0 0 0 0 0 0 0 0 127 0" result="hardAlpha"/>
<feOffset dx="1.9288" dy="1.9288"/>
<feGaussianBlur stdDeviation="0.482201"/>
<feComposite in2="hardAlpha" operator="out"/>
<feColorMatrix type="matrix" values="0 0 0 0 0 0 0 0 0 0 0 0 0 0 0 0 0 0 0.25 0"/>
<feBlend mode="normal" in2="BackgroundImageFix" result="effect1_dropShadow_2_268"/>
<feBlend mode="normal" in="SourceGraphic" in2="effect1_dropShadow_2_268" result="shape"/>
</filter>
</defs>
</svg>
