<svg width="78" height="40" viewBox="0 0 78 40" fill="none" xmlns="http://www.w3.org/2000/svg">
<g filter="url(#filter0_di_320_52)">
<rect x="4" width="70" height="32" rx="16" fill="url(#paint0_linear_320_52)"/>
<g filter="url(#filter1_d_320_52)">
<path d="M20.7239 20.084C20.1399 20.084 19.6119 19.984 19.1399 19.784C18.6759 19.584 18.3079 19.296 18.0359 18.92C17.7639 18.544 17.6239 18.1 17.6159 17.588H19.4159C19.4399 17.932 19.5599 18.204 19.7759 18.404C19.9999 18.604 20.3039 18.704 20.6879 18.704C21.0799 18.704 21.3879 18.612 21.6119 18.428C21.8359 18.236 21.9479 17.988 21.9479 17.684C21.9479 17.436 21.8719 17.232 21.7199 17.072C21.5679 16.912 21.3759 16.788 21.1439 16.7C20.9199 16.604 20.6079 16.5 20.2079 16.388C19.6639 16.228 19.2199 16.072 18.8759 15.92C18.5399 15.76 18.2479 15.524 17.9999 15.212C17.7599 14.892 17.6399 14.468 17.6399 13.94C17.6399 13.444 17.7639 13.012 18.0119 12.644C18.2599 12.276 18.6079 11.996 19.0559 11.804C19.5039 11.604 20.0159 11.504 20.5919 11.504C21.4559 11.504 22.1559 11.716 22.6919 12.14C23.2359 12.556 23.5359 13.14 23.5919 13.892H21.7439C21.7279 13.604 21.6039 13.368 21.3719 13.184C21.1479 12.992 20.8479 12.896 20.4719 12.896C20.1439 12.896 19.8799 12.98 19.6799 13.148C19.4879 13.316 19.3919 13.56 19.3919 13.88C19.3919 14.104 19.4639 14.292 19.6079 14.444C19.7599 14.588 19.9439 14.708 20.1599 14.804C20.3839 14.892 20.6959 14.996 21.0959 15.116C21.6399 15.276 22.0839 15.436 22.4279 15.596C22.7719 15.756 23.0679 15.996 23.3159 16.316C23.5639 16.636 23.6879 17.056 23.6879 17.576C23.6879 18.024 23.5719 18.44 23.3399 18.824C23.1079 19.208 22.7679 19.516 22.3199 19.748C21.8719 19.972 21.3399 20.084 20.7239 20.084ZM26.8244 12.98V15.08H29.6444V16.412H26.8244V18.632H30.0044V20H25.1444V11.612H30.0044V12.98H26.8244ZM35.8511 20L34.0031 16.736H33.2111V20H31.5311V11.624H34.6751C35.3231 11.624 35.8751 11.74 36.3311 11.972C36.7871 12.196 37.1271 12.504 37.3511 12.896C37.5831 13.28 37.6991 13.712 37.6991 14.192C37.6991 14.744 37.5391 15.244 37.2191 15.692C36.8991 16.132 36.4231 16.436 35.7911 16.604L37.7951 20H35.8511ZM33.2111 15.476H34.6151C35.0711 15.476 35.4111 15.368 35.6351 15.152C35.8591 14.928 35.9711 14.62 35.9711 14.228C35.9711 13.844 35.8591 13.548 35.6351 13.34C35.4111 13.124 35.0711 13.016 34.6151 13.016H33.2111V15.476ZM46.7426 11.624L43.6706 20H41.6306L38.5586 11.624H40.3586L42.6626 18.284L44.9546 11.624H46.7426ZM49.4299 12.98V15.08H52.2499V16.412H49.4299V18.632H52.6099V20H47.7499V11.612H52.6099V12.98H49.4299ZM58.4566 20L56.6086 16.736H55.8166V20H54.1366V11.624H57.2806C57.9286 11.624 58.4806 11.74 58.9366 11.972C59.3926 12.196 59.7326 12.504 59.9566 12.896C60.1886 13.28 60.3046 13.712 60.3046 14.192C60.3046 14.744 60.1446 15.244 59.8246 15.692C59.5046 16.132 59.0286 16.436 58.3966 16.604L60.4006 20H58.4566ZM55.8166 15.476H57.2206C57.6766 15.476 58.0166 15.368 58.2406 15.152C58.4646 14.928 58.5766 14.62 58.5766 14.228C58.5766 13.844 58.4646 13.548 58.2406 13.34C58.0166 13.124 57.6766 13.016 57.2206 13.016H55.8166V15.476Z" fill="white"/>
</g>
</g>
<defs>
<filter id="filter0_di_320_52" x="0" y="0" width="78" height="40" filterUnits="userSpaceOnUse" color-interpolation-filters="sRGB">
<feFlood flood-opacity="0" result="BackgroundImageFix"/>
<feColorMatrix in="SourceAlpha" type="matrix" values="0 0 0 0 0 0 0 0 0 0 0 0 0 0 0 0 0 0 127 0" result="hardAlpha"/>
<feOffset dy="4"/>
<feGaussianBlur stdDeviation="2"/>
<feComposite in2="hardAlpha" operator="out"/>
<feColorMatrix type="matrix" values="0 0 0 0 0 0 0 0 0 0 0 0 0 0 0 0 0 0 0.25 0"/>
<feBlend mode="normal" in2="BackgroundImageFix" result="effect1_dropShadow_320_52"/>
<feBlend mode="normal" in="SourceGraphic" in2="effect1_dropShadow_320_52" result="shape"/>
<feColorMatrix in="SourceAlpha" type="matrix" values="0 0 0 0 0 0 0 0 0 0 0 0 0 0 0 0 0 0 127 0" result="hardAlpha"/>
<feOffset dx="2" dy="2"/>
<feGaussianBlur stdDeviation="2"/>
<feComposite in2="hardAlpha" operator="arithmetic" k2="-1" k3="1"/>
<feColorMatrix type="matrix" values="0 0 0 0 1 0 0 0 0 1 0 0 0 0 1 0 0 0 0.25 0"/>
<feBlend mode="normal" in2="shape" result="effect2_innerShadow_320_52"/>
</filter>
<filter id="filter1_d_320_52" x="16.6159" y="11.504" width="44.7847" height="10.58" filterUnits="userSpaceOnUse" color-interpolation-filters="sRGB">
<feFlood flood-opacity="0" result="BackgroundImageFix"/>
<feColorMatrix in="SourceAlpha" type="matrix" values="0 0 0 0 0 0 0 0 0 0 0 0 0 0 0 0 0 0 127 0" result="hardAlpha"/>
<feOffset dy="1"/>
<feGaussianBlur stdDeviation="0.5"/>
<feComposite in2="hardAlpha" operator="out"/>
<feColorMatrix type="matrix" values="0 0 0 0 0 0 0 0 0 0 0 0 0 0 0 0 0 0 0.25 0"/>
<feBlend mode="normal" in2="BackgroundImageFix" result="effect1_dropShadow_320_52"/>
<feBlend mode="normal" in="SourceGraphic" in2="effect1_dropShadow_320_52" result="shape"/>
</filter>
<linearGradient id="paint0_linear_320_52" x1="4" y1="0" x2="73.8375" y2="32.3509" gradientUnits="userSpaceOnUse">
<stop stop-color="#00BFFF"/>
<stop offset="1" stop-color="#0085FF"/>
</linearGradient>
</defs>
</svg>
